<?xml version="1.0" standalone="no"?>
<!DOCTYPE svg PUBLIC "-//W3C//DTD SVG 20010904//EN"
 "http://www.w3.org/TR/2001/REC-SVG-20010904/DTD/svg10.dtd">
<svg version="1.0" xmlns="http://www.w3.org/2000/svg"
 width="282.000000pt" height="179.000000pt" viewBox="0 0 282.000000 179.000000"
 preserveAspectRatio="xMidYMid meet">

<g transform="translate(0.000000,179.000000) scale(0.100000,-0.100000)"
fill="#000000" stroke="none">
<path d="M2000 1447 c-57 -30 -82 -76 -77 -143 6 -89 66 -144 155 -144 80 0
161 96 147 173 -11 55 -42 96 -88 117 -55 26 -85 25 -137 -3z m145 -21 c58
-38 78 -125 42 -180 -25 -37 -75 -66 -117 -66 -136 1 -180 192 -59 253 39 20
97 17 134 -7z"/>
<path d="M1475 1364 c-72 -26 -74 -37 -38 -166 9 -34 18 -18 15 25 -3 38 0 48
29 76 32 32 32 32 57 14 13 -10 31 -35 39 -55 13 -34 13 -39 -1 -53 -15 -15
-22 -35 -12 -35 20 0 56 22 56 35 0 8 5 15 10 15 16 0 12 78 -6 105 -8 13 -29
27 -45 30 -16 4 -31 11 -34 16 -8 12 -22 11 -70 -7z"/>
<path d="M1414 1103 c-12 -2 -29 -12 -38 -22 -16 -18 -66 -152 -66 -178 0 -9
18 -13 65 -13 54 0 66 -3 75 -20 6 -11 8 -26 4 -32 -4 -6 -3 -8 3 -5 6 4 18
-13 27 -37 18 -47 33 -56 98 -56 61 0 68 7 68 62 0 32 4 47 11 43 6 -4 26 -4
46 0 l35 6 -4 95 c-5 124 -20 145 -107 158 l-62 9 -30 -37 c-34 -40 -53 -38
-47 5 4 27 2 29 -26 28 -17 -1 -41 -4 -52 -6z"/>
<path d="M2312 1055 c-12 -14 -22 -31 -22 -38 0 -8 4 -7 10 3 9 14 15 7 11
-14 -1 -5 4 -4 12 2 8 7 17 9 21 5 4 -4 4 0 0 10 -3 10 -1 17 5 17 6 0 11 8
11 17 0 14 -3 13 -16 -5 -21 -30 -38 -28 -18 3 21 32 14 32 -14 0z"/>
<path d="M2024 875 c-4 -8 -3 -32 0 -53 30 -186 38 -324 21 -341 -13 -13 -63
59 -72 101 -3 15 -9 25 -14 22 -5 -3 -6 2 -3 10 4 11 -62 145 -83 166 -16 17
14 -60 34 -83 12 -16 23 -41 24 -55 1 -57 33 -152 46 -139 8 9 43 -22 43 -37
0 -6 -9 0 -20 14 -11 14 -20 22 -20 18 0 -7 31 -80 51 -120 13 -26 11 -30 -12
-18 -11 7 -27 27 -35 45 -7 19 -18 36 -23 39 -9 6 -1 -23 25 -94 7 -19 16 -45
19 -57 6 -22 11 -23 102 -23 82 0 94 2 89 16 -3 8 -2 12 4 9 12 -7 24 39 17
65 -3 11 -2 18 2 16 4 -3 16 18 26 47 10 29 22 56 26 61 11 12 12 26 1 26 -10
0 -37 -68 -41 -102 -1 -9 -4 -9 -10 2 -6 8 -7 18 -4 23 10 16 32 122 33 155 0
17 -4 32 -10 32 -5 0 -10 -15 -10 -33 0 -18 -7 -42 -15 -53 -8 -12 -11 -25 -7
-29 4 -5 2 -5 -5 -1 -7 4 -17 -3 -24 -15 -9 -17 -13 -19 -20 -8 -12 19 -11 32
2 24 7 -5 10 11 11 47 1 165 4 215 10 205 4 -7 8 4 9 23 0 19 2 45 5 58 2 14
0 21 -6 17 -6 -4 -10 -12 -9 -18 1 -7 0 -19 -3 -27 -12 -31 -38 -119 -38 -127
0 -4 7 1 15 11 15 19 15 19 15 -2 0 -15 -6 -22 -19 -22 -29 0 -44 -49 -40
-138 3 -66 2 -76 -10 -65 -9 9 -15 51 -18 131 -2 64 -11 137 -19 161 -8 25
-14 64 -14 88 0 42 -15 58 -26 28z m117 -258 c-10 -9 -11 -8 -5 6 3 10 9 15
12 12 3 -3 0 -11 -7 -18z m-4 -94 c-3 -10 -5 -4 -5 12 0 17 2 24 5 18 2 -7 2
-21 0 -30z m0 -70 c-3 -10 -5 -4 -5 12 0 17 2 24 5 18 2 -7 2 -21 0 -30z m33
-2 c0 -6 -4 -13 -10 -16 -5 -3 -10 1 -10 9 0 9 5 16 10 16 6 0 10 -4 10 -9z
m-40 -36 c0 -8 -4 -15 -10 -15 -5 0 -10 7 -10 15 0 8 5 15 10 15 6 0 10 -7 10
-15z"/>
<path d="M867 793 c-4 -3 -7 -11 -7 -17 0 -6 5 -5 12 2 9 9 16 8 30 -5 14 -13
20 -13 33 -3 12 10 18 10 30 0 10 -8 15 -9 15 -2 0 19 -35 33 -48 20 -9 -9
-15 -9 -24 0 -13 13 -31 16 -41 5z"/>
<path d="M1531 686 c12 -10 60 -16 54 -6 -3 5 -18 10 -32 10 -15 0 -24 -2 -22
-4z"/>
<path d="M1176 629 c-31 -36 -31 -37 -7 -113 11 -36 21 -54 25 -45 3 8 4 5 1
-7 -3 -11 6 -53 20 -94 l25 -74 -16 -91 c-24 -134 -26 -135 -191 -135 l-133 0
0 190 0 190 25 0 c16 0 25 6 25 15 0 11 -11 15 -40 15 l-40 0 0 55 c0 30 -4
55 -10 55 -5 0 -10 -18 -10 -40 0 -33 -3 -40 -20 -40 -27 0 -25 -18 3 -23 12
-2 -80 -5 -205 -6 -195 -1 -228 -3 -228 -16 0 -8 7 -15 15 -15 20 0 20 2 -24
-156 -22 -77 -44 -158 -50 -181 l-12 -42 -77 -4 c-42 -1 503 -4 1212 -5 709
-1 1287 0 1285 2 -3 3 -186 6 -408 7 -270 2 -404 6 -406 14 -2 5 -18 88 -36
183 -19 104 -35 170 -41 164 -5 -5 -1 -48 10 -108 33 -166 45 -244 40 -249 -3
-3 -55 -4 -115 -3 l-109 3 26 140 c15 77 25 142 24 144 -9 11 -17 -17 -42
-148 -22 -122 -28 -141 -45 -141 -14 0 -17 5 -12 19 8 25 -9 34 -62 37 -39 1
-43 -1 -43 -21 0 -13 6 -26 13 -29 6 -3 -6 -4 -28 -3 l-39 2 -24 120 c-13 66
-26 122 -28 124 -13 14 -12 -18 6 -114 11 -60 20 -115 20 -122 0 -8 -14 -13
-39 -13 -33 0 -40 4 -43 22 -3 21 -8 23 -70 22 -77 -2 -76 -3 -56 88 l11 53
14 -44 c17 -57 27 -68 49 -50 12 9 15 10 10 2 -4 -8 -2 -13 6 -13 8 0 15 12
16 26 4 52 -17 323 -27 342 -9 18 -7 18 77 1 48 -10 109 -21 135 -24 l48 -6
-5 -72 c-4 -48 -3 -64 3 -47 l9 25 1 -27 c1 -18 -4 -28 -13 -28 -16 0 -33
-116 -22 -145 3 -9 2 -13 -4 -10 -6 3 -10 2 -10 -3 0 -8 79 -27 85 -20 11 11
63 242 58 255 -4 10 -2 14 4 10 6 -4 16 25 26 71 36 168 46 162 -265 162
l-246 0 -26 -31z m92 14 c-10 -2 -26 -2 -35 0 -10 3 -2 5 17 5 19 0 27 -2 18
-5z m442 -9 c0 -8 -19 -13 -24 -6 -3 5 1 9 9 9 8 0 15 -2 15 -3z m-529 -35
c-5 -13 -10 -19 -10 -12 -1 15 10 45 15 40 3 -2 0 -15 -5 -28z m22 -4 c-3 -9
-8 -14 -10 -11 -3 3 -2 9 2 15 9 16 15 13 8 -4z m84 -17 c-3 -7 -5 -2 -5 12 0
14 2 19 5 13 2 -7 2 -19 0 -25z m370 26 c-3 -3 -12 -4 -19 -1 -8 3 -5 6 6 6
11 1 17 -2 13 -5z m-352 -43 c-6 -21 -25 -29 -25 -11 0 6 5 10 10 10 6 0 10 8
10 17 0 9 3 14 6 10 3 -3 3 -15 -1 -26z m386 -7 c-5 -16 -10 -21 -10 -12 -1
18 10 51 15 45 2 -1 -1 -16 -5 -33z m-504 -6 c-3 -8 -6 -5 -6 6 -1 11 2 17 5
13 3 -3 4 -12 1 -19z m120 -60 c-3 -7 -5 -2 -5 12 0 14 2 19 5 13 2 -7 2 -19
0 -25z m390 -20 c-3 -8 -6 -5 -6 6 -1 11 2 17 5 13 3 -3 4 -12 1 -19z m-1157
-88 l0 -70 -60 0 c-34 0 -60 4 -60 10 0 6 7 37 17 70 l16 60 44 0 43 0 0 -70z
m267 58 c-2 -7 -13 -39 -23 -70 l-18 -58 -103 0 -103 0 0 70 0 70 126 0 c97 0
125 -3 121 -12z m73 -178 l0 -190 -85 0 c-47 0 -85 3 -85 7 0 5 27 90 61 190
56 170 62 183 85 183 l24 0 0 -190z m343 155 c-3 -9 -8 -14 -10 -11 -3 3 -2 9
2 15 9 16 15 13 8 -4z m87 -60 c0 -19 -4 -23 -17 -18 -11 4 -12 8 -5 11 7 2
12 10 12 18 0 8 2 14 5 14 3 0 5 -11 5 -25z m17 3 c-3 -8 -6 -5 -6 6 -1 11 2
17 5 13 3 -3 4 -12 1 -19z m-63 -34 c3 -8 2 -12 -4 -9 -6 3 -10 10 -10 16 0
14 7 11 14 -7z m346 -16 c0 -4 -6 -8 -13 -8 -7 0 -18 -10 -23 -22 -6 -13 -9
-17 -7 -10 2 8 3 21 3 31 0 10 8 17 20 17 11 0 20 -4 20 -8z m-340 -36 c0 -15
-2 -15 -10 -2 -13 20 -13 33 0 25 6 -3 10 -14 10 -23z m-730 -92 l0 -110 -95
0 c-52 0 -95 2 -95 6 0 5 48 179 55 202 3 8 26 12 70 12 l65 0 0 -110z m210
99 c0 -6 -14 -56 -31 -110 l-32 -99 -63 0 -64 0 0 110 0 110 95 0 c63 0 95 -4
95 -11z m560 -19 c0 -19 -18 -19 -23 -1 -3 14 -1 18 9 14 8 -3 14 -9 14 -13z
m324 4 c3 -8 2 -12 -4 -9 -6 3 -10 10 -10 16 0 14 7 11 14 -7z"/>
</g>
</svg>
